<svg width="402" height="96" viewBox="0 0 402 96" fill="none" xmlns="http://www.w3.org/2000/svg">
<path d="M366.936 38.288C367.448 40.848 368.345 43.216 368.984 45.776C369.624 47.952 372.121 54.032 373.145 55.952C373.593 53.584 374.937 49.424 375.513 47.888C376.025 46.544 376.664 44.752 377.432 42.192C378.328 39.44 378.969 36.688 380.376 33.36C380.889 32.4 383.064 30.928 384.216 30.416C385.24 30.032 385.817 32.016 386.201 32.848C386.969 34.512 386.777 35.728 387.097 36.624C387.545 38.032 387.417 39.696 387.737 41.104C388.633 45.2 388.824 48.4 389.656 52.368C390.168 54.928 390.169 54.992 390.873 59.28C391.193 61.008 390.552 63.12 389.784 64.4C388.952 65.616 387.929 66.512 386.905 66.128C386.521 65.936 386.265 64.4 386.073 63.888C385.817 63.504 385.624 62.544 385.496 61.968C385.432 60.816 385.113 59.6 384.857 58.448C384.217 56.144 383.769 54.032 383.257 51.728C382.809 49.552 382.297 45.648 381.465 42.96C378.905 48.528 378.009 52.368 376.985 56.144C376.217 58.832 376.344 59.92 374.936 62.608C374.488 63.568 372.377 66.96 371.353 66.832C370.201 66.704 369.432 63.632 368.984 62.736C367.705 60.368 366.937 58.192 365.913 55.632C365.401 54.288 364.888 52.816 364.44 51.408C363.992 50.32 363.096 47.824 362.456 46.608C362.2 46.096 362.2 47.312 361.944 48.528C361.752 49.36 361.432 51.6 361.112 52.368C360.152 54.864 360.089 56.336 359.257 58.768C358.489 60.88 359.001 60.944 358.361 63.12C357.977 64.336 357.657 65.04 357.529 65.744C357.337 66.64 356.889 66.896 356.249 67.344C355.033 68.112 353.689 67.792 353.753 66.704C354.009 65.168 354.136 64.208 354.456 62.672C355.352 59.088 355.353 57.552 356.313 54.16C357.209 51.088 357.785 48.272 358.425 45.2C359.001 42.32 359.513 40.336 360.089 38.224C360.665 36.112 363.096 31.696 365.208 32.272C365.208 32.272 365.72 32.08 366.936 38.288Z" fill="black"/>
<path d="M344.361 55.12C344.809 57.168 345.961 61.008 345.385 63.12C345.129 64.4 344.425 65.616 343.401 66.448C341.289 68.304 340.649 63.568 340.393 62.416C340.073 60.816 339.689 59.344 339.241 57.744C339.113 57.744 338.665 55.76 338.601 55.824C336.553 56.016 334.569 56.016 332.841 56.144C330.665 56.336 329.577 56.464 327.401 56.912C325.353 57.424 323.305 57.68 321.129 58.192C321.001 59.024 319.209 62.48 318.697 63.568C318.185 64.528 317.801 67.024 316.201 66.96C314.921 66.96 314.473 65.616 314.409 64.4C314.345 63.12 315.433 60.496 315.945 59.28C316.713 57.168 317.161 56.528 317.929 54.8C319.017 52.624 319.913 50.768 321.001 48.592C322.409 45.84 323.561 44.048 325.161 41.552C326.313 39.632 327.465 37.776 328.617 35.856C329.577 34.448 330.921 33.232 332.201 32.016C333.033 31.312 333.865 30.16 335.081 30.224C336.425 30.352 337.257 31.568 337.513 32.656C337.961 34 338.601 35.216 339.113 36.56C340.521 40.208 341.097 42.576 342.313 46.224C342.889 47.888 343.209 49.488 343.721 51.728C343.849 52.496 344.169 54.352 344.361 55.12ZM328.873 50.576C332.393 50.128 333.545 50.256 336.873 49.808C336.745 49.36 335.849 46.544 335.657 46.032C335.337 45.136 335.209 44.368 334.505 42.832C333.993 41.616 333.417 39.76 332.009 39.056C331.369 39.632 330.025 41.104 329.705 41.68C327.593 45.264 325.673 47.76 323.817 51.344C324.905 50.896 327.273 50.768 328.873 50.576Z" fill="black"/>
<path d="M278.514 37.52C278.77 35.216 279.346 33.296 284.466 32.144C285.938 31.824 287.282 31.312 288.69 31.184C290.866 30.928 293.106 30.672 295.282 30.672C296.178 30.672 297.01 30.736 297.842 30.8C300.338 31.312 302.066 31.824 304.306 33.104C305.522 33.872 306.034 34.32 306.354 35.6C306.546 36.752 305.714 39.056 305.074 40.336C302.514 44.88 298.098 48.4 294.002 51.216C297.202 52.432 300.658 53.904 303.218 56.08C304.498 57.104 305.97 58.256 306.802 59.6C307.186 60.304 307.634 61.584 307.634 62.672C307.634 63.44 307.442 63.76 306.994 64.144C305.202 65.488 303.922 64.08 302.514 63.184C300.914 62.16 299.122 61.136 297.394 60.304C294.514 58.896 291.634 57.552 288.69 56.528C286.962 55.824 285.234 55.184 282.994 54.544C282.994 56.848 282.93 58.448 282.93 60.752C282.93 62.224 282.738 63.12 282.93 64.464C283.122 65.68 283.25 67.408 281.65 67.472C279.154 67.6 279.09 62.288 279.026 60.624C278.898 57.808 278.834 55.44 278.834 53.008C278.834 50.64 278.898 48.272 278.898 45.456C278.898 42.512 278.578 40.464 278.514 37.52ZM285.874 47.952C287.858 48.016 289.266 47.824 291.122 47.184C292.402 46.672 293.554 46.224 294.834 45.456C296.818 44.176 298.482 42.704 299.954 40.784C300.722 39.696 301.426 39.12 300.082 38.352C299.378 37.84 298.29 37.712 297.458 37.392C296.178 37.008 294.386 37.456 293.042 37.456C290.162 37.456 288.306 37.84 285.49 38.672C284.786 38.928 284.018 39.248 283.314 39.632C283.186 42.384 283.186 44.304 283.186 47.056L285.874 47.952Z" fill="black"/>
<path d="M264.391 56.208C262.279 58.448 258.824 61.584 253.768 64.528C250.76 66.32 247.112 67.6 241.288 68.24C237.96 68.368 234.824 67.6 232.712 65.488C231.56 64.4 229.191 62.16 228.999 60.624C228.743 58.896 228.551 56.976 228.551 55.056C228.551 53.072 228.743 51.088 229.255 49.36C230.407 45.328 234.056 40.272 236.488 36.88C238.664 33.872 241.288 31.888 244.68 30.608C245.896 30.096 247.239 29.904 248.583 29.904C249.863 29.904 251.143 30.096 252.423 30.288C253.511 30.48 254.92 30.672 256.008 31.248C257.48 32.144 258.567 33.68 258.311 35.344C258.183 36.496 257.031 39.12 255.495 38.416C254.919 38.096 254.92 37.52 254.215 37.136C251.976 35.92 249.031 36.624 246.855 37.072C244.935 37.328 243.336 38.096 241.736 39.12C240.904 39.696 238.279 42.064 236.167 44.624C234.055 47.376 230.92 53.648 232.456 56.72C233.288 58.192 233.864 59.28 235.464 59.984C238.024 61.2 240.52 61.904 243.208 61.904C244.104 61.904 245 61.904 245.96 61.712C249.8 61.008 255.944 59.472 258.824 56.72C260.232 55.312 262.152 52.176 261.96 51.472C261.576 50.256 257.863 50.448 257.415 50.512C255.751 50.768 253.575 51.024 251.911 51.344C250.247 51.728 246.087 54.096 243.719 54.928C242.631 55.376 242.247 54.736 241.415 53.584C240.711 52.368 241.159 51.408 241.799 50.448C242.823 48.912 243.72 48.208 245.32 47.248C250.696 44.048 255.88 44.24 258.952 44.112C260.552 44.048 264.647 44.176 266.055 44.752C267.335 45.328 267.911 44.88 268.359 46.544C269.255 48.912 265.927 54.608 264.391 56.208Z" fill="black"/>
<path d="M209.989 42.32C209.925 44.112 209.925 45.968 209.925 47.824C209.925 52.496 210.117 57.488 210.437 61.84C210.501 62.48 210.757 63.312 210.757 64.144C210.757 64.848 210.565 65.488 210.053 66C207.557 68.304 206.213 63.888 206.085 62.096C206.021 60.752 206.021 59.152 206.021 57.424C206.021 55.824 206.021 54.16 205.957 52.816C205.829 49.808 205.701 46.736 205.765 43.792C205.829 42.576 205.893 41.36 205.893 40.208C205.893 39.312 205.637 39.44 204.805 39.504C203.397 39.696 201.733 39.952 200.325 40.016C198.853 40.08 196.933 40.592 195.589 40.08C194.373 39.632 194.245 39.056 194.437 37.776C194.565 36.432 197.381 33.872 198.725 33.744C201.285 33.488 201.861 33.488 204.421 32.912C207.045 32.336 209.797 31.824 212.485 31.504C214.149 31.44 217.669 31.568 219.333 31.504C220.997 31.504 222.661 31.696 224.069 32.592C224.901 33.168 224.773 34.576 224.581 35.728C224.197 37.136 223.301 36.944 222.149 37.136C220.549 37.264 217.285 37.392 215.749 37.712C214.853 37.84 214.021 37.904 213.189 38.096C212.485 38.224 211.141 38.224 210.565 38.544C209.861 38.992 210.053 41.552 209.989 42.32Z" fill="black"/>
<path d="M177.762 62.16C175.778 60.432 173.922 58.768 172.13 56.912C171.554 56.336 170.722 55.76 170.146 55.184C169.506 54.416 168.482 53.456 166.754 51.664C165.41 50.128 164.706 49.232 163.298 48.016C163.106 47.824 162.338 47.312 161.954 47.632C161.634 47.888 161.826 49.552 161.826 49.936C161.826 51.984 161.698 53.392 161.698 55.12C161.698 55.696 161.698 56.272 161.762 56.976C161.826 58.448 161.89 59.984 161.89 61.52C161.89 62.48 161.89 63.376 161.826 64.336C161.762 65.168 161.762 67.664 160.354 67.6C159.01 67.6 158.498 66.32 158.434 65.232C158.242 63.376 158.05 62.096 157.986 59.344C157.986 57.616 158.178 56.144 158.114 54.352C158.05 52.752 157.922 51.152 157.858 49.552C157.858 48.272 157.858 46.928 157.858 45.584C157.858 44.24 157.858 42.96 157.858 41.616C157.858 40.144 157.922 38.288 157.858 36.752C157.858 35.856 158.754 34.576 159.778 34C162.21 32.656 162.594 35.856 163.618 37.264C166.69 41.168 168.61 44.24 172.066 47.632C173.026 48.528 173.73 48.976 174.754 49.808C175.65 50.64 176.482 51.536 177.442 52.368C178.146 53.008 179.298 54.288 180.066 54.736C180.514 54.992 181.026 55.504 181.346 55.888C181.346 54.992 181.346 53.52 181.346 52.88C181.346 51.408 181.218 49.808 181.218 48.336C181.218 44.88 181.09 42.832 180.77 39.44C180.642 37.904 180.514 36.496 180.386 34.96C180.322 34 180.002 32.656 180.258 31.696C180.514 30.864 181.794 30.288 182.626 30.544C183.458 30.8 183.906 32.016 184.162 32.784C184.546 33.936 184.61 35.344 184.61 36.56C184.61 38.352 184.61 40.08 184.61 41.744C184.61 43.664 184.93 45.712 184.93 47.632C184.93 51.728 185.058 55.056 185.378 59.856C185.506 61.328 185.314 63.056 185.25 64.592C185.186 65.808 184.802 67.024 183.458 66.96C182.178 66.96 181.282 65.104 180.258 64.464C179.81 64.144 179.17 63.376 177.762 62.16Z" fill="black"/>
<path d="M119.194 35.856C119.258 34.384 121.306 34.32 122.266 34C125.978 32.784 128.282 32.784 132.058 32.336C134.17 32.08 136.218 31.824 138.394 31.824C139.93 31.824 141.914 31.952 143.45 32.656C144.282 32.976 144.603 33.616 144.603 34.32C144.603 35.472 143.706 36.944 142.682 37.456C141.53 38.096 139.546 37.904 138.138 37.968C136.09 38.16 133.914 38.416 131.802 38.736C129.882 38.992 128.09 39.504 126.234 39.76C125.338 39.888 123.162 40.144 122.778 40.976C122.65 41.424 122.33 42.384 122.266 42.832C122.202 43.472 122.138 44.88 122.138 45.52C122.138 46.48 121.882 47.056 122.458 47.824C123.866 47.632 125.402 47.504 127.002 47.12C130.138 46.288 132.762 45.776 135.898 45.328C137.37 45.136 138.842 44.944 140.378 45.136C141.594 45.2 142.938 45.264 144.026 45.84C145.178 46.416 146.202 46.864 145.498 48.08C144.922 49.168 144.154 49.296 143.002 49.68C138.842 50.896 134.746 51.728 130.394 52.624C128.666 53.008 127.002 53.072 125.53 53.52C124.698 53.712 123.93 53.904 123.098 54.224C121.69 54.544 122.01 57.936 122.138 58.768C122.138 59.472 122.202 59.6 122.906 59.536C124.058 59.472 125.146 59.344 126.362 59.344C130.01 59.344 133.85 58.576 137.434 58.064C140.634 57.552 140.314 57.488 143.578 57.424C144.73 57.424 145.882 57.424 147.098 57.552C147.546 57.616 148.187 57.552 148.379 58.064C148.507 58.512 148.25 59.152 148.122 59.536C147.674 60.432 147.29 60.88 146.65 61.584C145.818 62.48 144.346 62.8 143.13 63.12C139.61 64.4 139.29 64.4 135.514 64.848C134.362 64.976 133.274 65.232 132.122 65.36C131.098 65.424 130.138 65.36 129.114 65.424C127.322 65.488 125.466 66.192 123.738 66.32C122.586 66.32 121.434 66.576 120.346 66C119.322 65.36 118.618 64.4 118.49 63.12C118.17 60.112 117.978 56.976 117.85 53.904C117.722 49.808 118.682 45.712 118.682 41.616C118.682 39.696 119.194 37.904 119.194 35.856Z" fill="black"/>
<path d="M82.0385 43.664C82.0385 42.448 82.0385 41.616 82.0385 40.528C82.0385 38.992 82.1025 38.16 82.1025 37.008C82.1025 35.92 82.1025 34.896 82.1025 33.936C82.0385 32.464 83.3185 30.352 84.9825 31.312C86.1345 31.952 86.5185 32.784 86.4545 33.936C86.2625 35.856 86.1345 37.712 86.0065 39.568C85.9425 41.744 85.8145 43.984 85.6865 46.16C85.5585 48.464 86.0705 50.704 85.9425 53.008C85.8785 54.416 85.8785 55.952 86.1345 57.424C86.2625 58.576 86.5185 59.088 87.7985 59.28C88.9505 59.408 90.2945 59.216 91.3825 59.088C92.8545 58.96 94.2625 58.64 95.7345 58.448C98.7425 58.128 101.495 57.424 104.631 57.488C105.527 57.488 106.807 57.36 107.575 58C108.343 58.576 108.087 59.472 107.959 60.112C107.767 60.752 107.447 61.712 106.935 62.096C106.551 62.416 105.911 62.672 105.399 62.736C104.503 62.864 103.735 63.12 102.903 63.312C101.559 63.632 99.8305 63.568 98.5505 63.824C96.5665 64.336 95.4145 64.4 93.4305 64.784C91.8945 65.04 90.4865 65.168 89.0785 65.68C88.0545 66 86.7105 66.192 85.5585 66.192C84.6625 66.192 83.9585 66.064 83.6385 65.808C82.7425 65.232 82.3585 63.376 82.2305 62.48C82.1025 60.688 82.2305 60.048 82.1665 59.088C81.9745 55.952 81.8465 54.672 81.7825 51.792C81.7825 50 81.7825 48.208 81.9105 46.416C81.9745 45.456 82.0385 44.624 82.0385 43.664Z" fill="black"/>
<path d="M70.791 55.12C71.239 57.168 72.391 61.008 71.815 63.12C71.559 64.4 70.855 65.616 69.831 66.448C67.719 68.304 67.079 63.568 66.823 62.416C66.503 60.816 66.119 59.344 65.671 57.744C65.543 57.744 65.095 55.76 65.031 55.824C62.983 56.016 60.999 56.016 59.271 56.144C57.095 56.336 56.007 56.464 53.831 56.912C51.783 57.424 49.735 57.68 47.559 58.192C47.431 59.024 45.639 62.48 45.127 63.568C44.615 64.528 44.231 67.024 42.631 66.96C41.351 66.96 40.903 65.616 40.839 64.4C40.775 63.12 41.863 60.496 42.375 59.28C43.143 57.168 43.591 56.528 44.359 54.8C45.447 52.624 46.343 50.768 47.431 48.592C48.839 45.84 49.991 44.048 51.591 41.552C52.743 39.632 53.895 37.776 55.047 35.856C56.007 34.448 57.351 33.232 58.631 32.016C59.463 31.312 60.295 30.16 61.511 30.224C62.855 30.352 63.687 31.568 63.943 32.656C64.391 34 65.031 35.216 65.543 36.56C66.951 40.208 67.527 42.576 68.743 46.224C69.319 47.888 69.639 49.488 70.151 51.728C70.279 52.496 70.599 54.352 70.791 55.12ZM55.303 50.576C58.823 50.128 59.975 50.256 63.303 49.808C63.175 49.36 62.279 46.544 62.087 46.032C61.767 45.136 61.639 44.368 60.935 42.832C60.423 41.616 59.847 39.76 58.439 39.056C57.799 39.632 56.455 41.104 56.135 41.68C54.023 45.264 52.103 47.76 50.247 51.344C51.335 50.896 53.703 50.768 55.303 50.576Z" fill="black"/>
<path d="M42.04 34.704C41.336 36.432 38.968 36.24 37.624 36.24C35.128 36.24 32.632 36.304 30.072 36.496C30.072 36.944 30.008 37.328 30.008 37.712C30.008 40.848 29.368 43.472 29.176 46.672C29.048 49.36 28.984 52.688 28.856 55.44C28.792 57.296 29.112 59.024 29.112 60.88C29.112 61.52 29.112 62.16 29.112 62.864C29.112 63.696 29.112 64.464 28.856 65.104C28.472 66.32 27.384 68.112 26.36 66.704C25.592 65.744 25.08 63.952 24.824 62.736C24.632 61.776 24.632 60.688 24.632 59.664C24.632 58.192 24.696 56.72 24.76 55.44C24.952 51.664 25.144 47.952 25.272 44.24C25.336 41.936 25.528 39.568 25.592 37.2C21.88 37.904 18.232 38.8 14.52 38.864C13.304 38.928 12.664 38.288 12.024 37.264C11.192 35.984 12.28 35.408 12.856 34.256C13.112 33.808 13.176 33.488 13.56 33.232C14.008 32.912 14.712 32.72 15.224 32.592C17.08 32.016 19.064 31.696 20.92 31.248C23.352 30.736 25.848 30.672 28.216 30.48C30.648 30.288 33.08 30.096 35.448 30.096C36.6 30.096 37.752 29.84 38.712 30.288C40.376 31.056 43.064 32.336 42.04 34.704Z" fill="black"/>
</svg>
